<?xml version="1.0" encoding="UTF-8"?><svg id="b" xmlns="http://www.w3.org/2000/svg" viewBox="0 0 69.07 74.1"><defs><style>.d{fill:#4d1509;}.e{fill:#e9d721;}.f{fill:#f49422;}.g{fill:#502b16;}</style></defs><g id="c"><g><path class="g" d="M43.06,68.16c-11.61,7.79-23.59,7.49-35.82,1.61-2.46-1.53-4.92-3.06-7.15-4.46-.58-4.66,1.7-5.91,5.37-6.77,6.14-1.44,12.13-3.54,18.18-5.37,16.46-7.3,24.37-21.09,27.94-37.78,.65-3.03-1.41-6.58-1.92-9.94-.21-1.41,.34-2.94,.55-4.41,2.98-1.58,5.66-1.59,7.74,1.5v.42c-.21,.47-.12,.88,.27,1.22-.35,.35-.49,.77-.39,1.26,1.26,2.36,2.53,4.72,3.79,7.09-1.86,.31-3.71,.62-5.7,.95-6.7,27.53-21.84,46.03-52.1,48.57,0,.64,0,1.28,0,1.92,2.71,1.14,5.42,2.29,8.14,3.43,1.07,.47,2.14,.93,3.21,1.4l-.06-.06c6.17,3.59,12.35,3.22,18.53,.06l.03,.05c.52-.29,1.03-.58,1.55-.87l.41-.15c1.2-.63,2.4-1.25,3.6-1.88l.03,.03c1.29-.64,2.59-1.27,3.88-1.91,.58,.6,1.17,1.2,1.75,1.79l-1.79,2.28ZM55.74,11.3c.14-.13,.29-.26,.43-.38-.31-.59-.62-1.18-.93-1.77-.2,.18-.39,.37-.59,.55,.37,.53,.73,1.07,1.1,1.6Z"/><path class="g" d="M69.07,25.18c-.93,7.11-1.09,14.51-7.16,19.75-.72-.08-1.44-.15-2.16-.23,.57-1.34,1.14-2.67,1.71-4.01,0,0,.06-.13,.06-.13,.52-1.31,1.04-2.63,1.56-3.94,0,0,.04-.09,.04-.09,.3-.51,.6-1.01,.91-1.52,2.32-5.83,2.53-11.5-.79-17.13-.63-1.06-.24-2.72-.32-4.1,1.83,2.87,3.66,5.74,5.49,8.61,.22,.93,.45,1.86,.67,2.78Z"/><path class="d" d="M56.11,52.22c-.09,1.25-.18,2.5-.26,3.75-2.94,2.97-5.88,5.94-8.81,8.9-.72,.33-1.45,.67-2.17,1-.58-.6-1.17-1.2-1.75-1.79,.04-.35,.08-.71,.11-1.06l.07-.07c.46-.43,.93-.86,1.39-1.3l.04-.03c.45-.46,.91-.91,1.36-1.37l.03-.03c.48-.46,.96-.92,1.44-1.37,.45-.45,.9-.89,1.35-1.34,.46-.49,.91-.98,1.37-1.47,1.95-1.27,3.89-2.54,5.84-3.82Z"/><path class="e" d="M56.11,52.22c-1.95,1.27-3.89,2.54-5.84,3.82-.46,.49-.91,.98-1.37,1.47-.45,.45-.9,.89-1.35,1.34-.48,.46-.96,.92-1.44,1.37l-.03,.03c-.45,.46-.91,.91-1.36,1.37l-.04,.03c-.46,.43-.93,.86-1.39,1.3l-.07,.07-3.99,2.97-.03-.03c-1.2,.63-2.4,1.25-3.6,1.88l-.41,.15c-.52,.29-1.03,.58-1.55,.87l-.03-.05c-6.18-.02-12.36-.04-18.53-.06,0,0,.06,.06,.06,.06-1.07-.47-2.14-.93-3.21-1.4-2.71-1.14-5.42-2.29-8.14-3.43,0-.64,0-1.28,0-1.92,30.26-2.53,45.4-21.04,52.1-48.57,1.98-.33,3.84-.64,5.7-.95h-.12c-.03,.49-.07,1-.1,1.51,.51-.03,1.02-.07,1.53-.1v-.15c.08,1.38-.31,3.04,.32,4.1,3.32,5.63,3.1,11.31,.79,17.13-.3,.51-.6,1.01-.91,1.52,0,0-.04,.09-.04,.09-.52,1.31-1.04,2.63-1.56,3.94l-.06,.13c-4.36,1.11-6,4.04-5.56,8.35l.06,2.92,.15,.25Z"/><path class="f" d="M15.08,68.74c6.18,.02,12.36,.04,18.53,.06-6.19,3.17-12.37,3.54-18.53-.06Z"/><path class="f" d="M39.22,65.99l3.99-2.97c-.03,.35-.07,.71-.11,1.06-1.29,.64-2.59,1.27-3.88,1.91Z"/><path class="e" d="M55.74,11.3c-.37-.53-.73-1.07-1.1-1.6,.2-.18,.39-.37,.59-.55,.31,.59,.62,1.18,.93,1.77-.14,.13-.29,.26-.43,.38Z"/><path class="f" d="M35.6,67.83c1.2-.63,2.4-1.25,3.6-1.88-1.2,.63-2.4,1.25-3.6,1.88Z"/><path class="f" d="M11.93,67.4c1.07,.47,2.14,.93,3.21,1.4-1.07-.47-2.14-.93-3.21-1.4Z"/><path class="f" d="M33.65,68.85c.52-.29,1.03-.58,1.55-.87-.52,.29-1.03,.58-1.55,.87Z"/><path class="d" d="M55.95,51.97c-.02-.97-.04-1.95-.06-2.92,1.29-1.45,2.57-2.9,3.86-4.34,.72,.08,1.44,.15,2.16,.23l-5.95,7.03Z"/><path class="f" d="M59.75,44.7c-1.29,1.45-2.57,2.9-3.86,4.34-.43-4.31,1.2-7.24,5.56-8.35-.57,1.34-1.14,2.67-1.71,4.01Z"/><path class="f" d="M61.51,40.57c.52-1.31,1.04-2.63,1.56-3.94-.52,1.31-1.04,2.63-1.56,3.94Z"/><path class="f" d="M63.11,36.54c.3-.51,.6-1.01,.91-1.52-.3,.51-.6,1.01-.91,1.52Z"/><path class="g" d="M62.91,13.93c-.51,.03-1.02,.07-1.53,.1,.03-.51,.07-1.02,.1-1.53,.48,.48,.95,.95,1.43,1.43Z"/><path class="f" d="M48.9,57.5c.46-.49,.91-.98,1.37-1.47-.46,.49-.91,.98-1.37,1.47Z"/><path class="f" d="M46.11,60.22c.48-.46,.96-.92,1.44-1.37-.48,.46-.96,.92-1.44,1.37Z"/><path class="f" d="M44.72,61.62c.45-.46,.91-.91,1.36-1.37-.45,.46-.91,.91-1.36,1.37Z"/><path class="f" d="M43.29,62.95c.46-.43,.93-.86,1.39-1.3-.46,.43-.93,.86-1.39,1.3Z"/></g></g></svg>