<?xml version="1.0" encoding="UTF-8"?><svg id="b" xmlns="http://www.w3.org/2000/svg" viewBox="0 0 54.75 76.07"><defs><style>.d{fill:#641d1c;}.e{fill:#4d1509;}.f{fill:#f49422;}.g{fill:#e97f26;}.h{fill:#699752;}.i{fill:#3a2c14;}</style></defs><g id="c"><g><path class="f" d="M23.93,18.81l1.55-.28c15.23,5.19,17.46,9.96,9.82,21.08-.46-2.13-.92-4.26-1.26-5.82-3.19,3.47-6.35,7.35-9.97,10.72-3.73,3.47-7.92,6.43-12.77,10.31-.78,.56-2.43,1.72-4.07,2.89,3.56-10.78,6.91-21.64,10.84-32.28,.95-2.58,3.85-4.44,5.86-6.62Z"/><path class="e" d="M23.93,18.81c-2,2.19-4.9,4.05-5.86,6.62-3.94,10.64-7.28,21.5-10.84,32.28l-3.78,11.17c.43,.5,.85,1,1.28,1.5,1.98-.86,4.28-1.33,5.87-2.66,4.08-3.4,7.84-7.18,11.72-10.81,.09,1.06,.17,2.13,.26,3.19-3.06,3.14-5.98,6.44-9.23,9.38-3.51,3.18-6.72,7.19-13.36,6.51,.59-4.79,1.16-9.41,1.73-14.03,.46-1.4,.93-2.79,1.39-4.19,3.67-10.48,7.3-20.97,11.03-31.43,.83-2.33,1.67-4.79,3.1-6.75,1.69-2.32,4.08-3.77,6.68-.79Z"/><path class="e" d="M35.31,39.62c7.63-11.12,5.41-15.9-9.82-21.08,2.58-.93,5.15-1.86,7.73-2.78,.72-1.08,1.44-2.16,2.17-3.24,.76-1.98,1.51-3.96,2.27-5.94,.59-.64,1.17-1.28,1.76-1.92,1.91,.87,3.81,1.78,5.74,2.62,1.88,.81,3.79,1.56,5.69,2.33-3.62,.97-8.79-3.3-11.03,3.9h11.04c.09-1.56,.14-2.64,.2-3.71,1.11,1.57,2.22,3.14,3.69,5.23-6.46,1.38-11.63,2.49-17.07,3.65,7,12.25,6.36,16.91-3.28,28.05-1.22,1.4-2.6,2.66-3.91,3.98-.8,.01-1.6,.02-2.4,.03,2.41-3.7,4.81-7.41,7.22-11.11Z"/><path class="i" d="M39.41,4.64c-.59,.64-1.17,1.28-1.76,1.92-2.3-2.76-4.84-4.88-9.32-4.06,2.72,3.85,4.89,6.93,7.05,10-.72,1.08-1.44,2.16-2.17,3.24-1.29-2.08-2.59-4.15-3.88-6.23-1.54-2.49-3.07-4.99-5.32-8.65,6.98-.27,12.46-3.27,15.4,3.77Z"/><path class="d" d="M28.09,50.73c.8-.01,1.6-.02,2.4-.03-2.63,3.14-5.27,6.28-7.9,9.41-.09-1.06-.17-2.13-.26-3.19,1.92-2.06,3.84-4.13,5.76-6.19Z"/><path class="g" d="M28.09,50.73c-1.92,2.06-3.84,4.13-5.76,6.19-3.89,3.63-7.65,7.41-11.72,10.81-1.59,1.33-3.89,1.8-5.87,2.66-.43-.5-.85-1-1.28-1.5l3.78-11.17c1.64-1.16,3.28-2.33,4.07-2.89,4.85-3.88,9.04-6.84,12.77-10.31,3.63-3.37,6.78-7.25,9.97-10.72,.34,1.56,.8,3.69,1.26,5.82-2.41,3.7-4.81,7.41-7.22,11.11Z"/><path class="h" d="M35.38,12.51c-2.17-3.07-4.34-6.14-7.05-10,4.48-.82,7.02,1.3,9.32,4.06-.76,1.98-1.51,3.96-2.27,5.94Z"/><path class="h" d="M51.06,9.77c-.06,1.07-.12,2.15-.2,3.71h-11.04c2.24-7.2,7.41-2.92,11.03-3.9l.22,.18Z"/></g></g></svg>