<?xml version="1.0" encoding="UTF-8"?><svg id="b" xmlns="http://www.w3.org/2000/svg" viewBox="0 0 54.18 82.77"><defs><style>.d{fill:#660d31;}.e{fill:#641d1c;}.f{fill:#97276c;}.g{fill:#699752;}.h{fill:#502b16;}.i{fill:#3a2c14;}</style></defs><g id="c"><g><path class="d" d="M33.17,13.75c.92,1.37,1.83,2.75,2.75,4.12l-.27,.26c-11.16-2.65-13.8-1.61-18.53,8.55,2.73,2.53,5.43,6.9,9.11,8.03,6.97,2.13,10.88-2.06,11.88-10.82,1.52-.88,3.04-1.75,4.56-2.63,10.6,4.17,12.53,11.62,5.98,21.66,2.05,3.92,5.32,7.53,5.52,11.31,.2,3.85-2.61,7.86-4.28,11.78-1.55,3.89-3.1,7.77-4.65,11.66-.56-.42-1.12-.84-1.69-1.27,.38-.84,.78-1.66,1.13-2.51,2.02-4.88,.12-8.89-3.9-11.17-2.11-1.2-5.93-1.09-8.19,.02-4.26,2.1-4.8,6.33-3.48,10.72,.33,1.09,.71,2.17,1.07,3.25-1.3,.06-2.6,.13-3.9,.19-.62-4.65-1.24-9.29-2.06-15.44-3.73,.85-7.84,1.8-11.52,2.64-2.08,12.35,.47,15.39,11.79,15.46,.46,0,.92,.06,1.38,.09l.23,.18c-2.86,.95-5.71,1.9-8.57,2.86-9.07-4.59-10.93-8.51-8.65-18.17C-.77,57.25-1.72,54.48,2.07,44.6c1.47-2.29,2.94-4.58,4.41-6.87,3.77,2.24,7.58,4.18,13.22,1.24-1.59-3.75-2.74-7.66-4.82-11-1.8-2.89-5.87-1.74-6.92,1.71-.65,2.15-1.01,4.39-1.49,6.59-3.18-6.4-1.42-10.74,5.28-14.19,2.62-1.35,4.82-3.51,7.22-5.3,0,0-.03,.03-.03,.03,2.7-1.56,5.41-3.12,8.11-4.69l6.12,1.64Zm-5.17,43.62c5.66,.02,8.69-2.53,8.84-7.46,.13-3.96-4.04-7.67-8.88-7.91-4-.2-7.63,3.57-7.73,8.03-.12,5.06,2.27,7.31,7.77,7.33Zm-11.45-12.15c-3.72-3.2-8.01-2.57-10.69,1.09-1.7,2.32-2.11,6.45-1.48,9.42,.83,3.89,4.66,4.65,8.41,4.42,3.49-.21,4.94-1.94,4.51-5.44-.35-2.86-.47-5.76-.75-9.49Zm17.99-5.68c2.53,2.83,5.56,5.21,8.92,2.41,2.59-2.16,5.21-5.51,5.7-8.66,.52-3.35-1.34-7.17-5.43-7.76-3.12,4.75-5.95,9.08-9.19,14.01Zm5.7,7.17c-.33,3.89-.61,7.26-.94,11.19,3.16,1.19,6.25,2.35,9.32,3.51,3.57-9.17,.39-14.61-8.38-14.7Z"/><path class="i" d="M33.17,13.75l-6.12-1.64c-.31-.83-.61-1.66-.92-2.48-.23-2.17-.45-4.34-.75-7.18,1.22,.27,2.15,.47,3.09,.67,.61,.43,1.52,1.36,1.77,1.21,2.09-1.26,4.06-2.72,6.06-4.12l.45,.12,.32-.34c3.2,.71,6.4,1.41,9.59,2.12l-.06-.12c-.28,.71-.56,1.41-.84,2.12-2.15,5.89-7.15,8.05-12.59,9.64Zm-2.02-6.32c.32,.59,.64,1.18,.96,1.77,6.93,.52,7.6,.08,9-7.51-4,2.31-6.98,4.03-9.96,5.75Z"/><path class="h" d="M43.55,76.4c.56,.42,1.12,.84,1.69,1.27-2.64,1.64-5.29,3.29-8.21,5.1-1.75-.74-3.55-1.51-5.36-2.27-1.86-.22-3.72-.44-5.57-.66l-.23-.18c.14-.92,.27-1.83,.41-2.75,1.3-.06,2.6-.13,3.9-.19l-.03,.1c.54,.43,1.08,.87,1.61,1.3,3.93-.57,7.86-1.14,11.78-1.71Z"/><path class="e" d="M42.67,21.26c-1.52,.88-3.04,1.75-4.56,2.63-.82-1.92-1.64-3.84-2.46-5.76,0,0,.27-.26,.27-.26,2.25,1.13,4.5,2.26,6.75,3.39Z"/><path class="f" d="M35.65,18.13c.82,1.92,1.64,3.84,2.46,5.76-1,8.76-4.91,12.95-11.88,10.82-3.69-1.13-6.38-5.5-9.11-8.03,4.72-10.16,7.37-11.2,18.53-8.55Z"/><path class="f" d="M43.55,76.4c-3.93,.57-7.86,1.14-11.78,1.71-.54-.43-1.08-.87-1.61-1.3l.03-.1c-.36-1.08-.74-2.16-1.07-3.25-1.32-4.39-.78-8.62,3.48-10.72,2.26-1.11,6.08-1.22,8.19-.02,4.01,2.28,5.92,6.29,3.9,11.17-.35,.85-.75,1.67-1.13,2.51Z"/><path class="f" d="M26.28,76.91c-.14,.92-.27,1.83-.41,2.75-.46-.03-.92-.08-1.38-.09-11.31-.07-13.87-3.11-11.79-15.46,3.68-.84,7.79-1.78,11.52-2.64,.82,6.15,1.44,10.79,2.06,15.44Z"/><path class="f" d="M27.99,57.37c-5.51-.02-7.89-2.28-7.77-7.33,.1-4.46,3.73-8.23,7.73-8.03,4.84,.24,9.01,3.95,8.88,7.91-.16,4.93-3.19,7.48-8.84,7.46Z"/><path class="f" d="M16.54,45.22c.29,3.74,.4,6.63,.75,9.49,.43,3.51-1.02,5.23-4.51,5.44-3.75,.22-7.58-.53-8.41-4.42-.63-2.97-.23-7.1,1.48-9.42,2.68-3.65,6.96-4.29,10.69-1.09Z"/><path class="f" d="M34.53,39.54c3.24-4.93,6.07-9.26,9.19-14.01,4.09,.59,5.96,4.42,5.43,7.76-.49,3.15-3.11,6.49-5.7,8.66-3.36,2.8-6.39,.42-8.92-2.41Z"/><path class="f" d="M6.48,37.73c0-.49,0-.98-.01-1.47,.49-2.2,.84-4.44,1.49-6.59,1.05-3.45,5.11-4.6,6.92-1.71,2.08,3.34,3.23,7.25,4.82,11-5.64,2.95-9.45,1.01-13.22-1.24Z"/><path class="f" d="M40.23,46.71c8.78,.09,11.95,5.52,8.38,14.7-3.07-1.16-6.16-2.32-9.32-3.51,.33-3.92,.61-7.29,.94-11.19Z"/><path class="g" d="M31.15,7.43c2.98-1.72,5.96-3.44,9.96-5.75-1.4,7.59-2.07,8.04-9,7.51-.32-.59-.64-1.18-.96-1.77Z"/><path class="d" d="M30.15,76.81c.54,.43,1.08,.87,1.61,1.3-.54-.43-1.08-.87-1.61-1.3Z"/></g></g></svg>