<?xml version="1.0" encoding="UTF-8"?><svg id="b" xmlns="http://www.w3.org/2000/svg" viewBox="0 0 59.37 73.26"><defs><style>.d{fill:#641d1c;}.e{fill:#4d1509;}.f{fill:#f49422;}.g{fill:#e97f26;}.h{fill:#699752;}.i{fill:#502b16;}.j{fill:#3a2c14;}</style></defs><g id="c"><g><path class="e" d="M2.82,56.21c-.94-5.62-1.88-11.24-2.82-16.85,.4-1.37,.8-2.74,1.2-4.11,.07-.47,.15-.94,.22-1.41,1.41-1.49,2.82-2.97,4.23-4.46,.02,1.02,.03,2.03,.05,3.05,0,0-.1,.07-.1,.07-.33,.43-.66,.87-.99,1.3-.11,.94-.22,1.89-.33,2.83-3.79,9.23-.34,16.82,5.44,23.88h0c5.95,7.98,14.15,10.43,23.63,9.42,11.36-1.21,22.12-11.58,22.65-21.77,.34-6.69,0-13.31-3.17-19.45,.5-.61,.99-1.21,1.49-1.82,7.13,11.63,6.45,23.19-.28,34.71-.78,.93-1.56,1.86-2.35,2.78-2.76,1.97-5.52,3.94-8.28,5.91-1.85,.62-3.7,1.23-5.54,1.85-.95,.3-1.9,.6-2.85,.9-3.26,.08-6.51,.15-9.77,.23-.5-.08-1.01-.16-1.51-.25-.9-.38-1.8-.75-2.7-1.13-1.83-.58-3.66-1.16-5.49-1.74-.51-.43-1.03-.87-1.54-1.3,0,0-.05-.03-.05-.03-.44-.34-.88-.67-1.31-1.01-.92-.61-1.84-1.23-2.75-1.84l-7.06-9.76Z"/><path class="j" d="M12.59,0c3.85,.69,8.57-1.71,11.22,3.18h-6.86c1.05,6.48,5.04,7.16,9.65,6.89,.47,.87,.95,1.74,1.42,2.6-1.51,.09-3.01,.18-4.52,.27-5.56,.6-7.69-4.06-10.88-7.1-.12-.47-.25-.94-.37-1.41-.34-.47-.68-.94-1.02-1.41C11.69,2.02,12.14,1.01,12.59,0Z"/><path class="d" d="M54.31,26.88c-.5,.61-.99,1.21-1.49,1.82-3.14-2.52-6.27-5.03-9.41-7.55-2.52-1.38-5.05-2.75-7.57-4.13,.65-.58,1.3-1.16,1.95-1.74,7.53,.99,12.83,5.13,16.51,11.6Z"/><path class="i" d="M33.44,7.21c-.93,1.87-1.87,3.74-2.8,5.62l-2.62-.15c-.47-.87-.95-1.74-1.42-2.6l-.06-5.6c2.36-.02,4.71-.04,7.07-.07-.05,.94-.11,1.87-.16,2.81Z"/><path class="f" d="M35.56,17.11l.28-.09c2.52,1.38,5.05,2.75,7.57,4.13,1.57,4.13,3.15,8.26,5.05,13.26-.14,.79-.77,2.92-.83,5.07-.39,13.12-7,22.29-19.31,26.46-4.47,1.52-8.38,.85-12.08-2.41-1.72-1.52-4.32-2.04-6.53-3.01,0,0,0,0,0,0-1.81-7.96-3.62-15.92-5.44-23.88,.11-.94,.22-1.89,.33-2.83,.33-.43,.66-.87,.99-1.3,0,0,.1-.07,.1-.07,4.26-.56,4.94-3.74,5.26-7.19,0,0,.1,.06,.1,.06,.49-.49,.97-.98,1.46-1.47,6.53-6.17,14.58-7.18,23.05-6.73Z"/><path class="g" d="M9.71,60.51c2.2,.97,4.81,1.49,6.53,3.01,3.7,3.26,7.61,3.93,12.08,2.41,12.31-4.17,18.93-13.34,19.31-26.46,.06-2.15,.7-4.27,.83-5.07-1.9-5-3.48-9.13-5.05-13.26,3.14,2.52,6.27,5.03,9.41,7.55,3.17,6.14,3.51,12.76,3.17,19.45-.52,10.19-11.29,20.56-22.65,21.77-9.48,1.01-17.68-1.44-23.63-9.41Z"/><path class="g" d="M4.27,36.63c1.81,7.96,3.62,15.92,5.44,23.88C3.92,53.45,.48,45.86,4.27,36.63Z"/><path class="g" d="M10.96,25.24c-.32,3.44-1,6.63-5.26,7.19-.02-1.02-.03-2.03-.05-3.05,.9-1.31,1.8-2.62,2.7-3.94,.87-.07,1.74-.13,2.61-.2Z"/><path class="g" d="M5.59,32.49c-.33,.43-.66,.87-.99,1.3,.33-.43,.66-.87,.99-1.3Z"/><path class="e" d="M10.96,25.24c-.87,.07-1.74,.13-2.61,.2,.98-5.9,6.37-6.98,10.42-9.51,1.58-.99,3.16-1.99,4.73-2.99,1.51-.09,3.01-.18,4.52-.27l2.62,.15c1.64,1.43,3.28,2.86,4.92,4.28-8.47-.46-16.51,.55-23.05,6.73-.49,.49-.97,.98-1.46,1.47l-.1-.06Z"/><path class="h" d="M26.53,4.47l.06,5.6c-4.61,.27-8.6-.41-9.65-6.89h6.86c.91,.43,1.82,.86,2.72,1.29Z"/><path class="g" d="M11.06,25.3c.49-.49,.97-.98,1.46-1.47-.49,.49-.97,.98-1.46,1.47Z"/></g></g></svg>