<?xml version="1.0" encoding="UTF-8"?><svg id="b" xmlns="http://www.w3.org/2000/svg" viewBox="0 0 52.85 87.07"><defs><style>.d{fill:#4d1509;}.e{fill:#699752;}.f{fill:#52b048;}.g{fill:#502b16;}.h{fill:#3a2c14;}</style></defs><g id="c"><g><path class="h" d="M50.3,67.76c.02,.47,.04,.94,.06,1.42-1.22,2.31-2.44,4.62-3.66,6.94-.47-.08-.94-.15-1.41-.23,.95-3.04,1.93-6.08,2.86-9.13,3.78-12.43,.55-23.19-7.86-32.69l.02,.04c.1-.46,.05-.9-.14-1.32-.39-.97-.78-1.93-1.16-2.9-1.29-3.58-2.59-7.16-3.82-10.57-2.22-.2-3.57-.43-4.92-.43-15.27-.04-12.97-1.82-17.31,12.27-1.22,2.72-2.45,5.45-3.67,8.17-.46,1.06-.91,2.12-1.37,3.18,0,0,0-.01,0-.01-1.28,2.09-3.37,4.06-3.69,6.29-1.34,9.31-.97,18.48,4.01,26.95,.75,1.28,.81,2.98,1.19,4.48-.46,.02-.91,.03-1.37,.05-1.05-1.38-2.11-2.76-3.16-4.14-.3-.54-.6-1.08-.9-1.62l.06,.08c-1.31-4-2.62-8.01-3.93-12.01l.32-.22-.03-.38c-.14-.86-.28-1.72-.42-2.58,.02-1.83,.05-3.66,.07-5.48,.28-1.92,.56-3.83,.84-5.75,1.07-2.57,2.13-5.14,3.2-7.72,3.42-7.15,6.83-14.29,10.25-21.44,1.17-1.17,2.34-2.34,3.51-3.5,.95-.28,1.89-.56,2.84-.83l-.03,.03c.91,.02,1.82,.04,2.73,.06,2.91-.08,5.82-.16,8.74-.25,2.85,3.03,5.9,5.91,8.48,9.16,1.52,1.91,2.3,4.42,3.41,6.65l-.06-.02c.36,.9,.72,1.81,1.08,2.71,.46,.95,.91,1.9,1.37,2.84,1.1,1.97,2.2,3.94,3.31,5.91,.56,1.2,1.12,2.4,1.69,3.6l1.44,16.79c-.15,1.06-.3,2.12-.46,3.18-.7,.81-1.4,1.62-2.09,2.43Z"/><path class="d" d="M23.42,1.96c.96,1.36,1.92,2.71,2.88,4.07,.79,1.01,1.58,2.01,2.37,3.02,2.78,.37,5.56,.74,8.33,1.11l3.06,.25c-2.63,1.37-5.27,2.73-7.9,4.1-2.91,.08-5.82,.16-8.74,.25,.35-1.46,.7-2.91,1.05-4.37-1.37-2.32-2.73-4.65-4.1-6.97,.1-.46,.2-.91,.31-1.37,.92-.03,1.83-.06,2.75-.08Z"/><path class="h" d="M31.71,87.07c-3.84-.06-7.69-.11-11.53-.17-.78-.21-1.56-.43-2.34-.64-.69-.22-1.37-.44-2.06-.66l-2.21-2.47c2.63,.32,5.25,.91,7.88,.89,3.01-.02,6.02-.58,9.02-.91,3.23-.99,6.46-1.99,9.69-2.98,.02,.93,.04,1.87,.05,2.8-2.83,1.38-5.67,2.76-8.5,4.14Z"/><path class="h" d="M40.05,10.4l-3.06-.25c1.32-1.96,2.63-3.92,3.95-5.88-.29-.39-.58-.79-.86-1.18-2.59,.67-5.18,1.34-7.77,2.01-.6-.5-1.21-1.01-1.81-1.51,3.77-1.19,7.54-2.39,11.31-3.58,.89,1.13,1.78,2.26,2.67,3.39-1.48,2.34-2.95,4.67-4.43,7.01Z"/><path class="g" d="M45.51,79.69c-1.77,1.08-3.53,2.16-5.3,3.24-.02-.93-.04-1.87-.05-2.8,.08-.39,.13-.79,.17-1.19,.48-.91,.95-1.82,1.43-2.72v.09c1.18-.14,2.36-.28,3.54-.43,.47,.08,.94,.15,1.41,.23-.11,.84-.22,1.68-.33,2.52-.29,.35-.57,.71-.86,1.06Z"/><path class="f" d="M40.33,78.94c-.03,.4-.09,.79-.17,1.19-3.23,.99-6.46,1.99-9.69,2.98-5.55-1-11.09-2.01-16.85-3.05-1.09-2.47-1.95-5.43-3.57-7.9-5.02-7.66-6.14-15.68-3.22-24.35,.58-1.71,.73-3.56,1.08-5.34h0c.46-1.05,.91-2.11,1.37-3.17,1.22-2.72,2.45-5.45,3.67-8.17,2.73-3.44,5.45-6.88,8.31-10.47,3.82,.29,7.81,.6,10.61,.81,2.71,3.19,4.92,5.79,7.14,8.39,.39,.97,.78,1.93,1.16,2.9,.05,.44,.09,.88,.14,1.32l-.02-.04c.62,2.38,.92,4.9,1.92,7.11,3.78,8.31,5.97,16.84,3.54,25.9-.86,3.21-2.64,6.17-4,9.24v-.09c-.48,.91-.95,1.82-1.43,2.72Z"/><path class="e" d="M7.92,42.49c-.35,1.78-.51,3.63-1.08,5.34-2.93,8.67-1.8,16.68,3.22,24.35,1.61,2.46,2.48,5.42,3.57,7.9,5.75,1.04,11.3,2.04,16.85,3.05-3.01,.33-6.01,.89-9.02,.91-2.62,.02-5.25-.57-7.88-.89-.42,0-.83-.05-1.24-.13-.97-.93-1.93-1.87-2.9-2.8-.38-1.5-.43-3.2-1.19-4.48-4.98-8.46-5.36-17.64-4.01-26.95,.32-2.23,2.41-4.2,3.69-6.29Z"/><path class="e" d="M41.76,76.31c1.36-3.07,3.14-6.03,4-9.24,2.43-9.06,.24-17.59-3.54-25.9-1-2.2-1.3-4.73-1.92-7.11,8.41,9.5,11.64,20.26,7.86,32.69-.93,3.05-1.9,6.08-2.86,9.13l-3.54,.43Z"/><path class="e" d="M39.01,29.88c-2.21-2.6-4.43-5.21-7.14-8.39-2.81-.21-6.79-.52-10.61-.81-2.85,3.6-5.58,7.03-8.31,10.47,4.35-14.09,2.04-12.31,17.31-12.27,1.35,0,2.7,.23,4.92,.43,1.23,3.42,2.53,6.99,3.82,10.57Z"/><path class="e" d="M9.29,39.32c-.46,1.06-.91,2.12-1.37,3.18,.46-1.06,.91-2.12,1.37-3.18Z"/><path class="e" d="M40.32,34.1c-.05-.44-.09-.88-.14-1.32,.19,.43,.24,.87,.14,1.32Z"/><path class="g" d="M30.5,3.58c.6,.5,1.21,1.01,1.81,1.51l-3.65,3.95c-.79-1.01-1.58-2.01-2.37-3.02,1.4-.82,2.8-1.63,4.2-2.45Z"/><path class="e" d="M28.66,9.04c1.22-1.32,2.43-2.63,3.65-3.95,2.59-.67,5.18-1.34,7.77-2.01,.29,.39,.57,.79,.86,1.18-1.32,1.96-2.63,3.92-3.95,5.88-2.78-.37-5.56-.74-8.33-1.11Z"/><path class="e" d="M40.33,78.94c.48-.91,.95-1.82,1.43-2.72-.48,.91-.95,1.82-1.43,2.72Z"/></g></g></svg>