<?xml version="1.0" encoding="UTF-8"?><svg id="b" xmlns="http://www.w3.org/2000/svg" viewBox="0 0 69.9 79.95"><defs><style>.d{fill:#e84a9c;}.e{fill:#641c38;}.f{fill:#de399c;}.g{fill:#4d0936;}.h{fill:#699752;}.i{fill:#502b16;}.j{fill:#3a2c14;}</style></defs><g id="c"><g><path class="e" d="M55.11,66.3c-5.9,11.68-21.14,19.05-33.29,8.72C10.87,65.69,3.64,54.01,.68,39.98-1.81,28.13,2.58,20.1,13.03,15.61c1.36,.49,2.71,.98,4.07,1.47-.07,3.41-.15,6.81-.22,10.22-2.24-2.1-4.49-4.2-7.79-7.29-1.96,3.87-4.23,6.48-4.57,9.32-2.14,18.01,6.26,31.38,19.56,42.38,6.11,5.72,10.36,6.8,17.15,3.2,4.74-2.52,8.97-6,13.43-9.05l.46,.44Z"/><path class="e" d="M64.7,53.48c-3.2,4.27-6.4,8.55-9.59,12.82l-.46-.44c.98-2.23,1.75-4.59,2.99-6.68,4.84-8.18,8.63-16.69,8.49-26.43-.06-3.95-1.07-7.58-3.72-8.94-2.67,2.05-4.49,3.45-6.31,4.85-4.19-.6-8.38-1.21-12.57-1.81-.42-.41-.83-.81-1.25-1.22,4.1-.97,8.21-1.93,12.31-2.9-.45-.9-.89-1.79-1.34-2.69l-.34,.24c.17-1.05,.34-2.11,.52-3.16,1.02-.04,2.04-.07,3.06-.11,9.5,1.3,15.47,11.57,12.74,22.01-.91,3.46-1.96,6.89-2.95,10.33-.53,1.37-1.06,2.75-1.59,4.12Z"/><path class="j" d="M53.44,17.12c-.17,1.05-.34,2.11-.52,3.16-3-.82-6.91-.77-4.79-7.06-4.74,1.71-8.53,4.22-12.26,4.12-3.78-.1-7.45-2.88-11.26-4.23-1.22-.43-2.73-.11-4.1-.02-.33,.02-.63,.44-1.7,1.26,1.22,.72,2.33,1.37,3.73,2.19-1.49,1.41-2.63,2.49-3.76,3.57-.56-1.01-1.12-2.02-1.69-3.04-1.36-.49-2.71-.98-4.07-1.47-1.66-4.01,1.48-5.27,4-5.36,4.28-.14,8.58,.91,12.89,1.16,1.29,.07,2.64-.84,3.96-1.3,2.29-.24,.06,5.86,4.21,3.02,4.3-.47,8.6-1.14,12.91-1.26,.84-.02,1.74,2.08,2.61,3.2-.06,.69-.12,1.37-.18,2.05Z"/><path class="i" d="M38.1,13.13c-4.16,2.84-1.92-3.25-4.21-3.02,1.27-3.37,2.53-6.74,3.8-10.11,.66,.24,1.33,.49,1.99,.73-.72,2.17-1.75,4.29-2.06,6.52-.27,1.9,.29,3.91,.48,5.88Z"/><path class="g" d="M53.44,17.12c.06-.68,.12-1.37,.18-2.05,.96,.65,1.92,1.3,2.87,1.94-1.02,.04-2.04,.07-3.06,.11Z"/><path class="d" d="M43.54,26.86c4.19,.6,8.38,1.21,12.57,1.81-.88,2.85-2.65,5.76-2.48,8.55,.71,11.24-5.6,18.08-13.89,23.88-5.17,3.62-10.44,7.09-15.67,10.62C10.77,60.71,2.38,47.35,4.52,29.34c.34-2.84,2.61-5.45,4.57-9.32,3.3,3.09,5.55,5.19,7.79,7.29,4.29,.38,8.59,.76,12.8,1.13,1.47,3.39,2.82,6.5,4.72,10.86,2.6-1.89,4.97-2.88,6.16-4.66,1.5-2.25,2.04-5.15,2.99-7.77Z"/><path class="f" d="M24.07,71.71c5.23-3.54,10.5-7.01,15.67-10.62,8.29-5.79,14.6-12.64,13.89-23.88-.18-2.79,1.6-5.7,2.48-8.55,1.82-1.4,3.63-2.79,6.31-4.85,2.64,1.36,3.66,4.99,3.72,8.94,.15,9.74-3.65,18.24-8.49,26.43-1.23,2.09-2,4.45-2.99,6.68-4.46,3.05-8.69,6.53-13.43,9.05-6.78,3.61-11.04,2.52-17.15-3.2Z"/><path class="g" d="M43.54,26.86c-.95,2.62-1.49,5.51-2.99,7.77-1.19,1.78-3.55,2.77-6.16,4.66-1.89-4.36-3.24-7.47-4.72-10.86-4.21-.37-8.5-.75-12.8-1.13,.07-3.41,.15-6.81,.22-10.22,.56,1.01,1.12,2.02,1.69,3.04-.88,5.01,2.86,5.89,5.88,4.99,6.27-1.86,8.63,.62,9.54,6.33,.21,1.31,1.47,2.46,2.25,3.67,2.15-3.48,3.99-6.48,5.84-9.47,.42,.41,.83,.81,1.25,1.22Z"/><path class="h" d="M42.29,25.63c-1.85,3-3.69,5.99-5.84,9.47-.77-1.21-2.04-2.36-2.25-3.67-.91-5.71-3.27-8.19-9.54-6.33-3.02,.89-6.77,.02-5.88-4.99,1.14-1.08,2.27-2.16,3.76-3.57-1.4-.82-2.51-1.47-3.73-2.19,1.07-.81,1.37-1.24,1.7-1.26,1.37-.08,2.88-.41,4.1,.02,3.81,1.35,7.48,4.13,11.26,4.23,3.73,.09,7.53-2.41,12.26-4.12-2.12,6.29,1.8,6.24,4.79,7.06l.34-.24c.45,.9,.89,1.79,1.34,2.69-4.1,.97-8.21,1.93-12.31,2.9Z"/><path class="j" d="M54.61,22.74c-.45-.9-.89-1.79-1.34-2.69,.45,.9,.89,1.79,1.34,2.69Z"/></g></g></svg>