<?xml version="1.0" encoding="UTF-8"?><svg id="b" xmlns="http://www.w3.org/2000/svg" viewBox="0 0 63.5 63.28"><defs><style>.d{fill:#e84c4a;}.e{fill:#641d1c;}.f{fill:#de393b;}.g{fill:#4d1509;}.h{fill:#699752;}.i{fill:#502b16;}.j{fill:#3a2c14;}</style></defs><g id="c"><g><path class="d" d="M12.87,42.08c1.5-1.4,3-2.8,4.5-4.19,7.83-7.55,15.66-15.1,23.49-22.65,.76,1.59,1.52,3.18,2.27,4.77-1.17,.9-2.3,1.78-3.76,2.9,2.05,1.65,3.61,2.91,5.93,4.78-1.74,4.91-3.57,9.73-5.12,14.65-.54,1.71-.41,3.63-.59,5.46-4.09,1.37-8.22,3.95-12.25,3.8-5.31-.2-10.53-2.56-15.79-3.99,.44-1.84,.89-3.68,1.33-5.52Z"/><path class="j" d="M44.91,6.87c2.06-2.26,4.12-4.52,6.27-6.87,7.75,5.92,10.4,13.96,12.31,22.41-.03,3.28-.06,6.55-.09,9.83-3.23,8.8-6.45,17.49-14.2,23.7-13.3,10.65-37.26,10.24-49.21-4.63,3.34-3.02,6.72-6.08,10.1-9.15-1.4,2.69-2.79,5.39-4.19,8.08,.17,1.28-.09,3.35,.58,3.73,13.94,7.73,30.81,11.36,46.25-6.54,8.9-10.31,11.91-26.67-1.19-42.5-.55,.35-1.26,.6-1.63,1.09-.55,.72-.86,1.63-1.27,2.46-.72-.03-1.44-.05-2.16-.08-.53-.51-1.06-1.02-1.59-1.53Z"/><path class="e" d="M44.91,6.87c.53,.51,1.06,1.02,1.59,1.53,.03,.85,.05,1.7,.08,2.55-1.91,1.43-3.82,2.85-5.72,4.28-7.83,7.55-15.66,15.1-23.49,22.65,.51-1.84,.45-4.25,1.62-5.44,8.5-8.66,17.25-17.07,25.92-25.57Z"/><path class="i" d="M5.92,50.24c1.4-2.69,2.79-5.39,4.19-8.08,.92-.03,1.85-.05,2.77-.08-.44,1.84-.89,3.68-1.33,5.52-.91,.83-1.82,1.66-2.74,2.48-.96,.05-1.93,.11-2.89,.16Z"/><path class="f" d="M40.86,15.23c1.91-1.43,3.82-2.85,5.72-4.28,9.48,13.12,6.42,29.25-6.99,36.84,.18-1.83,.04-3.75,.59-5.46,1.56-4.91,3.39-9.74,5.12-14.65-2.32-1.87-3.88-3.12-5.93-4.78,1.46-1.13,2.59-2,3.76-2.9-.75-1.58-1.51-3.17-2.27-4.77Z"/><path class="g" d="M39.59,47.79c13.41-7.58,16.47-23.72,6.99-36.84-.03-.85-.05-1.7-.08-2.55,.72,.03,1.44,.05,2.16,.08,7.7,10.68,9.13,22.11,1.98,33.28-6.53,10.2-16.82,14.28-28.79,12.71-4.46-.59-8.7-2.87-13.03-4.38,.91-.83,1.82-1.66,2.74-2.48,5.26,1.43,10.49,3.79,15.79,3.99,4.03,.15,8.17-2.43,12.25-3.8Z"/><path class="h" d="M8.81,50.08c4.34,1.51,8.57,3.8,13.03,4.38,11.97,1.58,22.26-2.51,28.79-12.71,7.16-11.17,5.72-22.6-1.98-33.28,.41-.83,.72-1.73,1.27-2.46,.38-.5,1.08-.74,1.63-1.09,13.1,15.83,10.09,32.18,1.19,42.5-15.45,17.9-32.31,14.27-46.25,6.54-.68-.37-.41-2.45-.58-3.73,.96-.05,1.93-.11,2.89-.16Z"/></g></g></svg>